<?xml version="1.0" encoding="UTF-8" standalone="no"?>
<!-- Generator: Adobe Illustrator 27.0.1, SVG Export Plug-In . SVG Version: 6.00 Build 0)  -->

<svg
   version="1.1"
   id="Layer_1"
   x="0px"
   y="0px"
   viewBox="0 0 48 48"
   style="enable-background:new 0 0 48 48;"
   xml:space="preserve"
   sodipodi:docname="application.svg"
   inkscape:version="1.2.2 (b0a8486541, 2022-12-01)"
   xmlns:inkscape="http://www.inkscape.org/namespaces/inkscape"
   xmlns:sodipodi="http://sodipodi.sourceforge.net/DTD/sodipodi-0.dtd"
   xmlns="http://www.w3.org/2000/svg"
   xmlns:svg="http://www.w3.org/2000/svg"><defs
   id="defs180" /><sodipodi:namedview
   id="namedview178"
   pagecolor="#ffffff"
   bordercolor="#000000"
   borderopacity="0.25"
   inkscape:showpageshadow="2"
   inkscape:pageopacity="0.0"
   inkscape:pagecheckerboard="0"
   inkscape:deskcolor="#d1d1d1"
   showgrid="false"
   inkscape:zoom="18.333333"
   inkscape:cx="13.827273"
   inkscape:cy="24"
   inkscape:window-width="1920"
   inkscape:window-height="1036"
   inkscape:window-x="0"
   inkscape:window-y="22"
   inkscape:window-maximized="1"
   inkscape:current-layer="Layer_1" />
<style
   type="text/css"
   id="style2">
	.st0{opacity:0.34;fill:url(#rect3706_00000025420971517293882860000001256949420111273877_);enable-background:new    ;}
	.st1{opacity:0.2;fill:url(#rect3706_00000000922885171127599110000010415572385699641738_);enable-background:new    ;}
	
		.st2{fill:url(#path2855_00000061457311549366529490000016001583699563599278_);stroke:#5F5F5F;stroke-width:0.62;stroke-linecap:round;stroke-linejoin:round;}
	
		.st3{opacity:0.5907;fill-rule:evenodd;clip-rule:evenodd;fill:#80B3FF;stroke:#F6ABAB;stroke-width:0.4158;stroke-linecap:round;stroke-linejoin:round;enable-background:new    ;}
	
		.st4{opacity:0.4372;fill-rule:evenodd;clip-rule:evenodd;fill:#80B3FF;stroke:#80B3FF;stroke-width:0.2079;stroke-linecap:round;stroke-linejoin:round;enable-background:new    ;}
	
		.st5{opacity:0.5907;fill:none;stroke:#B9D5FF;stroke-width:0.4158;stroke-linecap:round;stroke-linejoin:round;enable-background:new    ;}
	.st6{fill:url(#SVGID_1_);}
	.st7{fill:url(#SVGID_00000027571503034192555500000004105447857614285473_);}
	
		.st8{fill-rule:evenodd;clip-rule:evenodd;fill:url(#path3270_00000055702633155022061810000002911124402055308677_);stroke:url(#path3270_00000109019535843859193560000001141543144617909685_);stroke-width:0.2437;}
	.st9{fill-rule:evenodd;clip-rule:evenodd;fill:#0C0C0C;stroke:#0C0C0C;stroke-width:0.2409;}
	.st10{fill-rule:evenodd;clip-rule:evenodd;fill:#EBBFA7;}
	.st11{fill-rule:evenodd;clip-rule:evenodd;fill:#D1A289;}
	.st12{fill-rule:evenodd;clip-rule:evenodd;fill:#D29A7C;}
	.st13{fill-rule:evenodd;clip-rule:evenodd;fill:#BA6F5E;}
	.st14{fill-rule:evenodd;clip-rule:evenodd;fill:#844939;}
	.st15{fill-rule:evenodd;clip-rule:evenodd;fill:#B1795D;}
	.st16{fill-rule:evenodd;clip-rule:evenodd;fill:#99634E;}
	.st17{fill:#D1A289;}
	
		.st18{fill:url(#rect2383_00000103960065624152637860000007759927896210012057_);stroke:#0C0C0C;stroke-width:0.2646;stroke-linejoin:round;}
	.st19{opacity:0.8;fill:#FFB6ED;stroke:#E28CCD;stroke-width:0.2646;stroke-linejoin:round;enable-background:new    ;}
	.st20{opacity:0.6;fill:#0C0C0C;enable-background:new    ;}
	.st21{fill:url(#path3233_00000109002957802468499460000007525786517452421811_);}
	.st22{fill:url(#path3216_00000042698563684543937890000015159336543902732173_);}
	.st23{fill:url(#path3248_00000103987187580859886570000014246906989050472126_);}
	.st24{fill:url(#path3250_00000177471179546217585520000002191646839157609391_);}
	.st25{fill:url(#path3256_00000098909954983340136930000015232707314790011812_);}
	.st26{fill:url(#path3258_00000172426356052000697490000003020008445477014166_);}
	.st27{opacity:0.65;fill:#0C0C0C;enable-background:new    ;}
</style>
<linearGradient
   id="rect3706_00000068679311385511060220000008489678815229514646_"
   gradientUnits="userSpaceOnUse"
   x1="3132.4114"
   y1="218166.625"
   x2="3129.2041"
   y2="218573.3125"
   gradientTransform="matrix(0.0536 -0.04 0.0074 0.0099 -1748.6198 -1999.1184)">
	<stop
   offset="0.1444"
   style="stop-color:#000000;stop-opacity:0.8646"
   id="stop4" />
	<stop
   offset="0.3858"
   style="stop-color:#000000;stop-opacity:0"
   id="stop6" />
</linearGradient>
<path
   id="rect3706"
   style="opacity:0.34;fill:url(#rect3706_00000068679311385511060220000008489678815229514646_);enable-background:new    ;"
   d="  M22.574,43.543c7.198-4.92,13.826-10.071,19.929-15.337c1.425-0.751,2.888-1.482,4.391-2.189c0.138-0.065,0.276-0.129,0.414-0.194  c-0.01,1.015-0.021,2.029-0.031,3.044c-6.731,6.61-9.962,9.124-11.655,10.115c-0.301,0.176-1.411,0.807-2.75,1.875  c-0.497,0.396-0.933,0.78-1.312,1.135c-0.975,0.914-1.5,1.561-1.831,1.916c-2.022,2.172-5.284,2.413-6.162,2.479  c-2.05,0.152-2.737-0.431-2.99-0.702c-0.187-0.2-0.299-0.404-0.366-0.549l0,0C20.998,44.613,21.786,44.082,22.574,43.543z" />
<linearGradient
   id="rect3706_00000092415828574076177890000007012173880142571908_"
   gradientUnits="userSpaceOnUse"
   x1="31208.9316"
   y1="60909.6289"
   x2="31202.0566"
   y2="61781.5195"
   gradientTransform="matrix(0.0375 0.0525 -0.0097 0.0069 -565.7753 -2029.791)">
	<stop
   offset="0"
   style="stop-color:#000000"
   id="stop10" />
	<stop
   offset="0.1444"
   style="stop-color:#000000;stop-opacity:0.8646"
   id="stop12" />
	<stop
   offset="0.6404"
   style="stop-color:#000000;stop-opacity:0"
   id="stop14" />
</linearGradient>
<path
   id="rect3706_00000138542958291415410060000000571316747516330630_"
   style="opacity:0.2;fill:url(#rect3706_00000092415828574076177890000007012173880142571908_);enable-background:new    ;"
   d="  M4.201,19.558c4.746,6.992,9.632,13.581,14.599,19.79c1.75,2.351,1.834,4.115,1.647,5.197c-0.008,0.048-0.017,0.096-0.027,0.144  c-1.071-0.75-2.498-1.817-4.078-3.209c-1.973-1.739-4.628-4.375-7.964-9.091c-1.118-1.582-9.41-13.3-7.255-15.305  c0.29-0.27,0.73-0.335,1.229-0.282C2.96,17.72,3.576,18.638,4.201,19.558z" />
<linearGradient
   id="path2855_00000057147499330384891310000016649520728331689137_"
   gradientUnits="userSpaceOnUse"
   x1="-1071.6638"
   y1="6058.1758"
   x2="-1071.6122"
   y2="6142.0552"
   gradientTransform="matrix(0.3611 -0.2692 0.2668 0.3578 -1219.7427 -2450.0869)">
	<stop
   offset="0"
   style="stop-color:#F4F4F4"
   id="stop18" />
	<stop
   offset="1"
   style="stop-color:#DBDBDB"
   id="stop20" />
</linearGradient>
<path
   id="path2855"
   style="fill:url(#path2855_00000057147499330384891310000016649520728331689137_);stroke:#5F5F5F;stroke-width:0.62;stroke-linecap:round;stroke-linejoin:round;"
   d="  M0.789,17.148C6.47,12.912,17.097,4.968,22.778,0.732c0.849,1.033,19.618,24.993,21.061,26.823  c-7.777,5.799-15.554,11.598-23.331,17.396C19.004,42.809,1.431,18.135,0.789,17.148z" />



















<linearGradient
   id="SVGID_1_"
   gradientUnits="userSpaceOnUse"
   x1="-1364.1005"
   y1="2725.4846"
   x2="-1364.1005"
   y2="2702.7397"
   gradientTransform="matrix(0.8013 -0.5982 0.5982 0.8013 -510.8464 -2971.1721)">
	<stop
   offset="0"
   style="stop-color:#A0A0A0"
   id="stop43" />
	<stop
   offset="1"
   style="stop-color:#C8C8C8"
   id="stop45" />
</linearGradient>


<g
   id="Layer_2_00000115517253201379045420000015994884965572863106_"
   transform="translate(-2.6155984,1.9774675)">
	
		<linearGradient
   id="path3270_00000049210346853561161350000014404648375473892029_"
   gradientUnits="userSpaceOnUse"
   x1="-2527.4409"
   y1="1660.3442"
   x2="-2527.4409"
   y2="1659.2772"
   gradientTransform="matrix(0.576,-1.1103,1.4787,0.7909,-973.038,-4095.238)">
		<stop
   offset="0"
   style="stop-color:#ECE5A5"
   id="stop58" />
		<stop
   offset="1"
   style="stop-color:#FCFBF2"
   id="stop60" />
	</linearGradient>
	
		<linearGradient
   id="path3270_00000060734087132571067770000008740272635877111997_"
   gradientUnits="userSpaceOnUse"
   x1="-288.81409"
   y1="3446.1011"
   x2="-287.3689"
   y2="3447.552"
   gradientTransform="matrix(0.7459,-0.194,0.2605,0.7347,-657.5992,-2564.5134)">
		<stop
   offset="0"
   style="stop-color:#DBCE48"
   id="stop63" />
		<stop
   offset="1"
   style="stop-color:#C5B625"
   id="stop65" />
	</linearGradient>
	
		<path
   id="path3270_00000075150105001384736370000006985504289977998472_"
   style="clip-rule:evenodd;fill:url(#path3270_00000049210346853561161350000014404648375473892029_);fill-rule:evenodd;stroke:url(#path3270_00000060734087132571067770000008740272635877111997_);stroke-width:0.2437"
   d="m 24.549,25.504 2.945,-2.429 c 0,0 -0.353,-0.781 -1.049,-1.154 -0.697,-0.373 -1.366,-0.488 -1.524,-0.267 z" />
	<path
   id="path3281_00000150061701818812113430000007267959074384521613_"
   class="st9"
   d="m 24.641,24.465 -0.093,1.036 0.781,-0.658 c -0.099,-0.067 -0.194,-0.138 -0.308,-0.201 -0.13,-0.072 -0.254,-0.125 -0.38,-0.177 z" />
	<path
   class="st10"
   d="M 48,29.379 C 47.343,29.146 46.675,28.9 45.998,28.642 45.259,28.36 44.54,28.074 43.84,27.786 42.915,27.586 40.717,27.294 39.445,27.058 38.465,26.876 36.458,26.161 35.529,25.79 34.78,25.491 31.39,24.959 28.919,23.335 27.925,22.682 27.613,23.23 26.899,23.096 26.794,23 25.922,22.693 25.744,22.756 24.661,22.65 23.529,22.416 23.842,21.71 c 0.402,-0.906 0.968,-2.509 1.249,-3.209 1.187,-2.962 1.357,-3.614 2.508,-5.647 0.262,-0.462 0.738,-0.462 1.268,-0.634 0.602,-0.196 1.207,-0.364 1.819,-0.514 0.241,0.28 -0.065,0.458 -0.154,0.652 -0.09,0.194 -0.23,0.348 -0.119,0.574 l 0.002,-0.005 c -0.327,0.118 -0.463,0.348 -0.405,0.692 l 0.003,-0.004 c -0.336,0.109 -0.294,0.386 -0.286,0.647 l 0.003,-0.004 c -0.08,0.066 -0.161,0.132 -0.241,0.199 -0.057,0.093 -0.115,0.186 -0.172,0.279 -0.244,-0.036 -0.488,-0.072 -0.794,-0.117 -0.194,1.215 -0.307,2.499 -1.659,3.157 0.341,0.291 0.166,0.631 0.079,0.967 -0.516,0.462 -1.065,0.875 -1.715,1.164 0.6,-0.102 1.2,-0.204 1.8,-0.307 0.144,0.371 0.096,0.64 -0.365,0.697 -0.538,0.067 -0.545,0.411 -0.423,0.82 1.337,0.133 0.107,1.61 0.346,1.854 0.558,-0.405 1.072,0.066 1.63,0.13 0.969,0.111 1.924,0.243 2.869,0.473 0.339,0.082 0.511,-0.1 0.657,-0.458 -0.596,0.04 -0.464,-1.211 -1.315,-0.595 -0.205,-0.766 0.077,-1.15 0.798,-0.993 0.407,0.089 0.695,0.057 0.917,-0.222 0.34,0.156 0.004,0.534 0.363,0.706 0.157,-0.329 0.272,-0.673 0.469,-0.959 0.377,-0.546 0.943,-0.415 1.03,0.244 0.976,-0.085 1.347,-1.005 2.031,-1.481 0.061,-0.043 -0.028,-0.303 -0.048,-0.463 -0.045,-0.387 -0.204,-0.731 -0.409,-1.056 h -0.003 c 0.033,-0.06 0.066,-0.119 0.099,-0.179 -0.471,-0.795 -0.915,-1.613 -1.818,-2.018 -0.121,-0.28 -0.078,-0.633 -0.326,-0.867 -0.206,0.13 -0.118,0.272 -0.107,0.4 -0.199,0.044 -0.361,0.151 -0.5,0.296 l -0.008,-0.005 c -0.109,-0.424 -0.218,-0.847 -0.37,-1.437 -0.405,0.697 0.216,1.167 -0.024,1.66 -0.035,0.004 -0.067,0.014 -0.097,0.033 L 32.42,16.172 c -0.068,-0.073 -0.135,-0.146 -0.203,-0.22 -0.057,-0.041 -0.114,-0.082 -0.171,-0.124 -0.097,-0.355 -0.195,-0.711 -0.292,-1.066 0.01,-0.293 0.229,-0.557 0.12,-0.866 1.093,-0.681 1.909,-1.631 2.749,-2.557 -0.053,-0.061 -0.106,-0.122 -0.159,-0.183 -0.404,0.104 -0.808,0.208 -1.212,0.312 0.041,-0.178 0.114,-0.332 0.298,-0.404 0.623,-0.078 1.701,-0.393 2.029,-0.266 0.215,0.083 1.152,-0.312 1.361,-0.344 0.25,-0.038 0.516,0.117 0.749,0.021 1.341,-0.55 1.745,1.97 1.776,3.017 0.002,0.069 0.125,0.129 0.181,0.201 0.529,0.688 1.253,1.001 2.172,1.065 -0.191,0.453 0.07,0.521 0.397,0.655 0.493,0.201 1.05,0.389 1.429,0.715 0.898,0.77 1.767,1.582 2.579,2.454 0.592,0.184 1.185,0.369 1.777,0.553 0,3.414 0,6.829 0,10.244 z"
   id="path70" />
	<path
   class="st10"
   d="m 47.419,17.58 c -0.043,-0.027 -0.086,-0.054 -0.128,-0.08 0.042,0.027 0.085,0.054 0.128,0.08 z"
   id="path72" />
	<path
   class="st11"
   d="m 26.242,21.186 c -0.592,-0.484 -0.162,-0.907 0.261,-1.085 0.423,-0.178 0.559,-0.409 0.523,-0.501 -0.014,-0.06 0.008,0.022 -0.007,-0.038 0.432,-0.064 0.853,-0.083 1.277,-0.135 0.217,-0.027 0.435,-0.062 0.655,-0.117 0.122,0.061 0.245,0.122 0.367,0.183 -0.094,0.272 0.028,0.382 0.29,0.419 0.202,0.029 0.419,0.052 0.608,0.059 1.019,0.038 2.038,0.336 3.062,0.058 0.081,-0.016 0.162,-0.033 0.242,-0.049 0.049,-0.01 0.097,-0.021 0.146,-0.032 0.047,-0.008 0.093,-0.016 0.14,-0.024 0.178,0.212 0.408,0.11 0.63,0.131 0.668,0.063 0.963,-0.634 1.551,-0.703 0.02,0.159 0.109,0.42 0.048,0.463 -0.685,0.476 -1.056,1.396 -2.031,1.481 -0.086,-0.659 -0.653,-0.79 -1.03,-0.244 -0.197,0.286 -0.312,0.63 -0.469,0.959 -0.359,-0.171 -0.023,-0.549 -0.363,-0.706 -0.222,0.279 -0.51,0.311 -0.917,0.222 -0.721,-0.157 -1.003,0.228 -0.798,0.993 0.851,-0.615 0.719,0.635 1.315,0.595 -0.146,0.358 -0.318,0.54 -0.657,0.458 -0.945,-0.23 -1.9,-0.362 -2.869,-0.473 -0.558,-0.064 -1.471,-0.073 -1.63,-0.13 -0.159,-0.057 -0.195,-0.796 -0.096,-0.922 0.022,0.007 0.025,-0.1 0.024,-0.102 -0.19,-0.441 0.32,-0.276 -0.272,-0.76 z m 2.916,0.932 c 0.304,-0.816 0.147,-1.571 -0.338,-1.91 -0.676,0.781 0.542,1.214 0.338,1.91 z m 2.356,-1.558 c -0.378,-0.172 -0.64,-0.154 -0.846,0.287 0.373,0.093 0.642,0.095 0.846,-0.287 z"
   id="path74" />
	<path
   class="st11"
   d="m 32.278,12.766 c 0.274,-0.086 0.132,-0.444 0.434,-0.591 0.234,-0.114 0.081,-0.533 0.241,-0.633 0.099,-0.025 0.436,-0.387 0.436,-0.387 l 1.059,-0.259 c 0.179,-0.094 0.54,-0.246 0.949,-0.155 0.064,0.014 0.124,0.034 0.179,0.055 -0.715,0.633 -1.46,1.271 -2.236,1.911 -0.494,0.408 -0.984,0.803 -1.469,1.187 l -0.055,-0.021 c 0.155,-0.368 0.308,-0.738 0.462,-1.107 z"
   id="path76" />
	<path
   class="st12"
   d="m 29.314,14.736 c -0.195,0.546 -0.354,1.114 -0.73,1.57 -0.194,0.235 -0.076,0.496 -0.138,0.738 -0.057,-0.004 -0.147,-0.033 -0.165,-0.008 -0.047,0.063 -0.105,0.155 0.023,0.211 l 0.003,-0.008 c -0.608,0.207 -0.711,0.811 -0.998,1.271 -0.105,0.106 -0.197,0.234 -0.37,0.232 0.087,-0.336 0.262,-0.675 -0.079,-0.967 1.353,-0.658 1.465,-1.942 1.659,-3.157 0.308,0.046 0.551,0.082 0.795,0.118 z"
   id="path78" />
	<path
   class="st13"
   d="m 26.94,18.742 c 0.173,0.002 0.264,-0.126 0.37,-0.232 0.221,0.422 -0.488,0.508 -0.327,0.908 0.014,0.06 0.029,0.121 0.043,0.181 -0.6,0.102 -1.616,0.24 -2.216,0.342 0.648,-0.289 1.613,-0.737 2.13,-1.199 z"
   id="path80" />
	<path
   class="st12"
   d="m 25.211,20.433 c 0.785,0.236 0.067,1.329 0.255,1.769 10e-4,0.002 -0.034,0.025 -0.053,0.026 -0.021,10e-4 -0.043,-0.012 -0.065,-0.019 -0.02,-0.081 -0.041,-0.161 -0.061,-0.242 -0.017,-0.125 -0.057,-0.231 -0.207,-0.241 -0.344,-0.267 0.004,-0.986 0.131,-1.293 z"
   id="path82" />
	<path
   class="st11"
   d="m 35.577,18.295 h -0.003 c 0.033,-0.059 0.066,-0.119 0.099,-0.178 -0.471,-0.795 -0.915,-1.613 -1.818,-2.018 -0.121,-0.28 -0.078,-0.633 -0.326,-0.867 -0.206,0.13 -0.118,0.272 -0.107,0.4 -0.199,0.044 -0.361,0.151 -0.5,0.296 l -0.008,-0.005 c -0.109,-0.424 -0.218,-0.847 -0.37,-1.437 -0.405,0.697 0.216,1.167 -0.024,1.66 -0.035,0.003 -0.067,0.014 -0.097,0.032 0.006,0.052 0.013,0.104 0.019,0.156 0.198,0.196 0.587,0.033 0.708,0.375 0.219,-0.008 0.428,0.026 0.611,0.159 0.004,0.046 0.014,0.09 0.031,0.132 v 0 c 0.04,0.188 0.079,0.376 0.119,0.564 0.087,0.123 0.292,0.204 0.15,0.411 0.131,0.288 0.261,0.577 0.392,0.865 0.341,-0.023 0.721,-0.261 1.016,0.211 -0.495,0.427 -1.214,0.405 -1.663,0.871 0.178,0.212 0.408,0.11 0.63,0.131 0.668,0.063 0.963,-0.634 1.551,-0.703 -0.047,-0.386 -0.205,-0.729 -0.41,-1.055 z"
   id="path84" />
	<path
   class="st12"
   d="m 35.573,18.295 c 0.033,-0.059 0.066,-0.119 0.099,-0.178 -0.033,0.059 -0.066,0.119 -0.099,0.178 z"
   id="path86" />
	<path
   class="st14"
   d="m 30.946,15.809 c -0.065,0.237 0.049,0.299 0.259,0.267 0.042,-0.005 0.083,-0.005 0.125,-0.001 0.147,0.43 0.496,0.376 0.834,0.349 0.354,0.201 0.668,0.434 0.854,0.821 0.079,0.166 0.274,0.242 0.467,0.267 0.017,0.04 0.033,0.081 0.046,0.122 0.095,0.241 0.383,0.181 0.53,0.342 0.131,0.288 0.261,0.577 0.391,0.866 -0.073,0.277 0.258,0.196 0.32,0.341 -0.846,0.4 -1.754,0.36 -2.645,0.429 -0.944,0.149 -1.87,-0.161 -2.81,-0.119 -0.122,-0.061 -0.452,-0.132 -0.452,-0.132 0,0 1.445,-2.862 2.012,-3.502"
   id="path88" />
	<path
   class="st15"
   d="m 34.452,18.841 c -0.073,0.277 0.258,0.196 0.32,0.341 -0.846,0.4 -1.754,0.36 -2.645,0.429 -1.088,-0.186 -1.88,-0.365 -2.434,-0.365 -0.97,-10e-4 -1.232,0.299 -1.232,0.299 0,0 0.884,0.329 1.146,0.366 0.202,0.029 0.419,0.052 0.608,0.059 1.019,0.038 2.038,0.336 3.062,0.058 0.081,-0.016 0.162,-0.033 0.242,-0.049 0.03,-0.098 0.076,-0.119 0.146,-0.032 0.047,-0.008 0.093,-0.016 0.14,-0.024 0.449,-0.466 1.168,-0.443 1.663,-0.871 -0.294,-0.472 -0.675,-0.235 -1.016,-0.211 z"
   id="path90" />
	<path
   class="st10"
   d="m 29.158,22.118 c 0.204,-0.696 -1.014,-1.129 -0.338,-1.91 0.485,0.339 0.642,1.094 0.338,1.91 z"
   id="path92" />
	<path
   class="st10"
   d="m 31.514,20.56 c -0.203,0.382 -0.472,0.381 -0.846,0.287 0.205,-0.441 0.468,-0.46 0.846,-0.287 z"
   id="path94" />
	<path
   class="st12"
   d="m 33.52,19.978 c 0.03,-0.098 0.076,-0.119 0.146,-0.032 -0.049,0.011 -0.097,0.022 -0.146,0.032 z"
   id="path96" />
	<path
   class="st16"
   d="M 33.91,17.564 C 33.87,17.376 33.831,17.188 33.791,17 33.774,16.958 33.764,16.913 33.76,16.868 c -0.183,-0.133 -0.392,-0.167 -0.611,-0.159 -0.121,-0.341 -0.51,-0.179 -0.708,-0.375 -0.093,0.03 -0.185,0.059 -0.277,0.089 0.354,0.201 0.668,0.434 0.854,0.821 0.079,0.166 0.274,0.242 0.467,0.267 0.017,0.04 0.033,0.081 0.046,0.122 0.095,0.241 0.383,0.181 0.53,0.342 0.141,-0.207 -0.063,-0.288 -0.151,-0.411 z"
   id="path98" />
	<path
   class="st17"
   d="M 32.214,15.951 C 32.157,15.91 32.1,15.869 32.043,15.828 c -0.079,0.028 -0.079,0.028 0,0 -0.046,-0.17 -0.093,-0.34 -0.14,-0.509 0.027,-0.115 0.073,-0.908 -0.005,-0.987 -0.022,-0.082 -0.027,-0.437 -0.027,-0.437 l -0.984,1.931 c 0,0 0.012,-0.012 0.019,-0.015 -0.047,0.215 0.125,0.476 0.383,0.391 0.027,-0.009 0.053,-0.021 0.08,-0.031 0.164,0.324 0.483,0.278 0.793,0.253 0.093,-0.03 0.185,-0.059 0.278,-0.089 -0.006,-0.052 -0.013,-0.104 -0.02,-0.156 l -0.004,-0.008 c -0.066,-0.074 -0.134,-0.147 -0.202,-0.22 z"
   id="path100" />
	
		<linearGradient
   id="rect2383_00000044164374630395187170000006690793910542526095_"
   gradientUnits="userSpaceOnUse"
   x1="-2338.2947"
   y1="1805.8503"
   x2="-2338.2947"
   y2="1807.9813"
   gradientTransform="matrix(0.6166,-1.2582,1.3259,0.8201,-923.854,-4409.1621)">
		<stop
   offset="0"
   style="stop-color:#181818"
   id="stop102" />
		<stop
   offset="0.1348"
   style="stop-color:#DBDBDB"
   id="stop104" />
		<stop
   offset="0.2022"
   style="stop-color:#A4A4A4"
   id="stop106" />
		<stop
   offset="0.2697"
   style="stop-color:#FFFFFF"
   id="stop108" />
		<stop
   offset="0.4465"
   style="stop-color:#8D8D8D"
   id="stop110" />
		<stop
   offset="0.5711"
   style="stop-color:#959595"
   id="stop112" />
		<stop
   offset="0.7204"
   style="stop-color:#CECECE"
   id="stop114" />
		<stop
   offset="1"
   style="stop-color:#181818"
   id="stop116" />
	</linearGradient>
	
		<path
   id="rect2383_00000157304270565707375400000013972554624366918578_"
   style="fill:url(#rect2383_00000044164374630395187170000006690793910542526095_);stroke:#0c0c0c;stroke-width:0.2646;stroke-linejoin:round"
   d="m 25.964,19.518 c 0.597,-0.024 1.23,-0.066 1.892,-0.134 0.657,-0.067 1.279,-0.152 1.864,-0.248 0.09,-0.166 0.18,-0.333 0.27,-0.5 1.476,-2.749 2.808,-5.499 4.008,-8.241 C 33.922,10.192 33.627,9.516 32.875,9.051 32.12,8.584 31.398,8.429 31.263,8.704 Z" />
	<path
   id="rect3175_00000061450027479945970790000002926570201099737777_"
   class="st19"
   d="m 30.513,10.164 c 0.278,-0.012 0.92,-0.002 1.599,0.375 0.569,0.316 0.895,0.741 1.047,0.971 0.025,-0.054 0.05,-0.108 0.075,-0.162 0.145,-0.284 0.291,-0.568 0.436,-0.851 0.01,-0.008 0.156,-0.13 0.133,-0.309 C 33.79,10.088 33.731,10.022 33.708,9.999 33.498,9.725 32.818,8.912 31.752,8.805 31.543,8.784 31.349,8.793 31.174,8.819 l -0.013,0.027 z" />
	<path
   id="path3208_00000088110547587461756150000009966829022388838828_"
   class="st20"
   d="m 25.944,19.552 c 0.501,-0.013 1.003,-0.025 1.504,-0.038 0.748,-0.089 1.497,-0.179 2.245,-0.268 0.749,-1.481 1.498,-2.963 2.247,-4.444 0.118,-0.176 0.248,-0.411 0.348,-0.702 0.052,-0.15 0.087,-0.291 0.111,-0.418 -0.138,-0.231 -0.469,-0.716 -1.094,-1.067 -0.684,-0.384 -1.33,-0.388 -1.598,-0.375 l -0.189,0.09 c -1.19,2.408 -2.382,4.815 -3.574,7.222 z" />
	
		<linearGradient
   id="path3233_00000158013189917571309630000013176017890296700066_"
   gradientUnits="userSpaceOnUse"
   x1="-2356.0122"
   y1="1546.3683"
   x2="-2356.0122"
   y2="1548.1343"
   gradientTransform="matrix(0.5991,-1.2226,1.5517,0.9598,-958.0931,-4353.3345)">
		<stop
   offset="0"
   style="stop-color:#565656"
   id="stop122" />
		<stop
   offset="0.5"
   style="stop-color:#9A9A9A"
   id="stop124" />
		<stop
   offset="1"
   style="stop-color:#545454"
   id="stop126" />
	</linearGradient>
	
		<path
   id="path3233_00000104665174695971897050000002238765188801051302_"
   style="fill:url(#path3233_00000158013189917571309630000013176017890296700066_)"
   d="m 29.788,11.644 c 0.165,-0.24 0.867,-0.078 1.599,0.374 0.73,0.452 1.209,1.021 1.119,1.307 0,0.001 0.018,0.009 0.017,0.011 l 0.066,-0.135 c 0,-0.001 -0.017,-0.009 -0.017,-0.011 0.09,-0.286 -0.39,-0.855 -1.12,-1.307 -0.731,-0.453 -1.434,-0.615 -1.598,-0.375 z" />
	
		<linearGradient
   id="path3216_00000017477939386829595220000005645253330847820977_"
   gradientUnits="userSpaceOnUse"
   x1="-2355.8269"
   y1="1546.368"
   x2="-2355.8269"
   y2="1548.134"
   gradientTransform="matrix(0.5991,-1.2226,1.5517,0.9598,-958.2645,-4352.9834)">
		<stop
   offset="0"
   style="stop-color:#B1B1B1"
   id="stop130" />
		<stop
   offset="0.5"
   style="stop-color:#FFFFFF"
   id="stop132" />
		<stop
   offset="1"
   style="stop-color:#8F8F8F"
   id="stop134" />
	</linearGradient>
	
		<path
   id="path3216_00000010292486246868183890000007498400745217614216_"
   style="fill:url(#path3216_00000017477939386829595220000005645253330847820977_)"
   d="m 29.727,11.768 c 0.165,-0.241 0.867,-0.078 1.599,0.374 0.73,0.451 1.209,1.021 1.12,1.307 -10e-4,10e-4 0.017,0.009 0.017,0.011 l 0.066,-0.135 c 0,-10e-4 -0.017,-0.009 -0.017,-0.01 0.09,-0.286 -0.389,-0.855 -1.119,-1.307 -0.732,-0.452 -1.434,-0.615 -1.599,-0.375 -0.001,0 -0.067,0.135 -0.067,0.135 z" />
	
		<linearGradient
   id="path3248_00000137106048417517837300000017023841179814134150_"
   gradientUnits="userSpaceOnUse"
   x1="-2356.6567"
   y1="1546.3683"
   x2="-2356.6567"
   y2="1548.1343"
   gradientTransform="matrix(0.5991,-1.2226,1.5517,0.9598,-957.4969,-4354.5513)">
		<stop
   offset="0"
   style="stop-color:#565656"
   id="stop138" />
		<stop
   offset="0.5"
   style="stop-color:#9A9A9A"
   id="stop140" />
		<stop
   offset="1"
   style="stop-color:#545454"
   id="stop142" />
	</linearGradient>
	
		<path
   id="path3248_00000118387101610189342380000012896700742841783993_"
   style="fill:url(#path3248_00000137106048417517837300000017023841179814134150_)"
   d="m 29.998,11.215 c 0.165,-0.24 0.867,-0.078 1.599,0.374 0.73,0.452 1.209,1.021 1.119,1.307 0,10e-4 0.017,0.009 0.017,0.011 l 0.066,-0.135 c 0,-10e-4 -0.018,-0.009 -0.017,-0.011 0.09,-0.286 -0.39,-0.855 -1.12,-1.307 -0.731,-0.453 -1.434,-0.615 -1.599,-0.374 z" />
	
		<linearGradient
   id="path3250_00000025424234636201490630000011266901187039495300_"
   gradientUnits="userSpaceOnUse"
   x1="-2356.4712"
   y1="1546.368"
   x2="-2356.4712"
   y2="1548.134"
   gradientTransform="matrix(0.5991,-1.2226,1.5517,0.9598,-957.6683,-4354.2002)">
		<stop
   offset="0"
   style="stop-color:#B1B1B1"
   id="stop146" />
		<stop
   offset="0.5"
   style="stop-color:#FFFFFF"
   id="stop148" />
		<stop
   offset="1"
   style="stop-color:#8F8F8F"
   id="stop150" />
	</linearGradient>
	
		<path
   id="path3250_00000147918522177615731300000005942139025386705541_"
   style="fill:url(#path3250_00000025424234636201490630000011266901187039495300_)"
   d="m 29.937,11.339 c 0.165,-0.241 0.867,-0.078 1.599,0.374 0.73,0.451 1.209,1.021 1.12,1.307 -10e-4,0.001 0.017,0.009 0.017,0.011 l 0.066,-0.135 c 0,-0.001 -0.017,-0.009 -0.017,-0.011 0.09,-0.286 -0.389,-0.855 -1.119,-1.306 -0.732,-0.452 -1.434,-0.615 -1.599,-0.375 z" />
	
		<linearGradient
   id="path3256_00000097462803300880618640000013051296148917999517_"
   gradientUnits="userSpaceOnUse"
   x1="-2357.3044"
   y1="1546.368"
   x2="-2357.3044"
   y2="1548.1343"
   gradientTransform="matrix(0.5991,-1.2226,1.5517,0.9598,-956.8977,-4355.7734)">
		<stop
   offset="0"
   style="stop-color:#565656"
   id="stop154" />
		<stop
   offset="0.5"
   style="stop-color:#9A9A9A"
   id="stop156" />
		<stop
   offset="1"
   style="stop-color:#545454"
   id="stop158" />
	</linearGradient>
	
		<path
   id="path3256_00000021096568386956982390000007777845917232030646_"
   style="fill:url(#path3256_00000097462803300880618640000013051296148917999517_)"
   d="m 30.209,10.784 c 0.165,-0.241 0.867,-0.078 1.599,0.374 0.73,0.452 1.209,1.021 1.119,1.307 0,10e-4 0.017,0.009 0.017,0.011 l 0.066,-0.135 c 0,-10e-4 -0.018,-0.009 -0.017,-0.01 0.09,-0.286 -0.39,-0.855 -1.12,-1.307 -0.731,-0.453 -1.434,-0.615 -1.599,-0.374 z" />
	
		<linearGradient
   id="path3258_00000060732770132403517220000006990564762854813616_"
   gradientUnits="userSpaceOnUse"
   x1="-2357.1184"
   y1="1546.368"
   x2="-2357.1184"
   y2="1548.134"
   gradientTransform="matrix(0.5991,-1.2226,1.5517,0.9598,-957.0691,-4355.4229)">
		<stop
   offset="0"
   style="stop-color:#B1B1B1"
   id="stop162" />
		<stop
   offset="0.5"
   style="stop-color:#FFFFFF"
   id="stop164" />
		<stop
   offset="1"
   style="stop-color:#8F8F8F"
   id="stop166" />
	</linearGradient>
	
		<path
   id="path3258_00000023263717040036092510000012405426462641042590_"
   style="fill:url(#path3258_00000060732770132403517220000006990564762854813616_)"
   d="m 30.148,10.908 c 0.165,-0.241 0.867,-0.078 1.599,0.374 0.73,0.451 1.209,1.02 1.12,1.307 -10e-4,10e-4 0.017,0.009 0.017,0.01 l 0.066,-0.134 c 0,-10e-4 -0.017,-0.009 -0.017,-0.011 0.09,-0.286 -0.389,-0.855 -1.119,-1.307 -0.732,-0.452 -1.433,-0.615 -1.599,-0.374 z" />
	<path
   class="st11"
   d="m 48,27.125 c 0,-0.306 0,-0.612 0,-0.918 -0.267,-0.047 -0.659,-0.11 -1.139,-0.166 -0.355,-0.042 -0.533,-0.073 -0.634,-0.064 -0.68,0.06 -1.306,0.335 -1.961,0.483 -0.303,0.068 -0.643,0.027 -0.739,0.389 0,0 -0.019,0.091 0.006,0.186 0.052,0.195 0.357,0.145 0.481,0.367 0.034,0.061 0.04,0.114 0.043,0.129 0.041,0.195 1.014,0.665 3.942,1.666 C 48,28.505 48,27.815 48,27.125 Z"
   id="path170" />
	<path
   class="st11"
   d="m 48.005,19.395 c -0.573,-0.385 -1.156,-0.77 -1.748,-1.154 -0.258,-0.167 -0.516,-0.333 -0.772,-0.497 -0.039,-0.027 -0.079,-0.054 -0.118,-0.081 -0.591,-0.501 -1.158,-1.046 -1.78,-1.5 -1.528,-1.114 -4.07,-4.433 -4.453,-4.423 v -10e-4 c -0.517,0.005 -0.773,-0.545 -1.236,-0.688 -0.538,-0.167 -0.956,-0.158 -1.239,0.538 0.836,0.393 1.45,0.965 1.484,2.012 0.002,0.069 0.116,0.13 0.168,0.203 0.491,0.691 1.159,1.009 2.004,1.079 -0.172,0.451 0.068,0.522 0.37,0.657 0.454,0.204 0.967,0.396 1.319,0.724 0.831,0.776 1.635,1.594 2.388,2.471 0.251,0.292 0.668,0.596 1.225,0.949 0.918,0.581 1.784,0.864 2.384,1.011 0.001,-0.432 0.002,-0.866 0.004,-1.3 z"
   id="path172" />
	<path
   class="st27"
   d="m 48,18.963 c -0.406,-0.24 -0.818,-0.491 -1.236,-0.752 -0.344,-0.215 -0.679,-0.43 -1.007,-0.645 l -0.123,-0.084 c -0.11,-0.095 -0.245,-0.215 -0.38,-0.334 L 45.167,17.071 C 44.755,16.684 44.34,16.311 43.941,15.968 43.777,15.827 43.588,15.719 43.435,15.639 42.703,15 41.84,14.045 41.078,13.201 40.297,12.337 39.85,11.848 39.557,11.64 c -0.411,-1.291 -1.052,-1.519 -1.524,-1.479 -0.128,0.011 -0.261,0.044 -0.393,0.098 -0.006,10e-4 -0.012,10e-4 -0.018,0.002 -0.071,0.006 -0.139,-0.006 -0.211,-0.019 -0.114,-0.021 -0.244,-0.044 -0.386,-0.032 -0.007,10e-4 -0.05,0.006 -0.057,0.007 -0.094,0.014 -0.228,0.059 -0.455,0.136 -0.237,0.08 -0.594,0.201 -0.758,0.215 -0.104,-0.037 -0.271,-0.051 -0.5,-0.032 -0.22,0.019 -0.476,0.065 -0.792,0.128 l -0.103,0.021 c -10e-4,0 -0.002,0 -0.004,10e-4 l 0.023,-0.048 C 34.64,10.106 33.94,9.363 33.131,8.862 32.541,8.497 31.956,8.299 31.565,8.332 31.238,8.36 31.099,8.539 31.045,8.647 31.022,8.668 30.997,8.694 30.975,8.726 30.966,8.739 30.945,8.78 30.938,8.794 l -0.647,1.32 c -0.022,0.046 -0.033,0.094 -0.034,0.142 l -0.109,0.223 c -0.023,0.021 -0.047,0.047 -0.069,0.078 l -0.09,0.177 -0.061,0.124 c -0.014,0.029 -0.024,0.06 -0.029,0.091 -0.011,0.012 -0.021,0.025 -0.031,0.04 l -0.09,0.176 -0.061,0.124 c -0.014,0.029 -0.024,0.06 -0.029,0.091 -0.01,0.012 -0.02,0.025 -0.03,0.039 l -0.084,0.164 -0.067,0.136 c -0.014,0.028 -0.023,0.057 -0.029,0.087 -0.212,0.062 -0.424,0.126 -0.635,0.195 -0.117,0.038 -0.232,0.067 -0.341,0.095 -0.396,0.101 -0.844,0.215 -1.115,0.693 -0.934,1.65 -1.224,2.387 -1.925,4.167 -0.171,0.435 -0.367,0.932 -0.603,1.52 -0.099,0.248 -0.234,0.608 -0.385,1.01 -0.268,0.717 -0.603,1.608 -0.859,2.187 -0.137,0.308 -0.076,0.548 -10e-4,0.694 0.139,0.271 0.438,0.468 0.933,0.608 l -0.143,1.484 c -0.008,0.023 -0.013,0.048 -0.015,0.073 l -0.079,0.879 c -0.069,0.096 -0.083,0.224 -0.032,0.335 0.06,0.129 0.193,0.205 0.332,0.193 0.01,-0.001 0.02,-0.002 0.03,-0.004 0.008,-10e-4 0.016,-0.003 0.024,-0.005 0.008,-0.001 0.016,-0.002 0.024,-0.004 0.104,-0.019 0.188,-0.083 0.235,-0.169 l 2.739,-2.259 c 0.026,-0.004 0.048,-0.008 0.068,-0.011 0.187,0.011 0.371,0.024 0.526,0.042 0.065,0.008 0.13,0.017 0.194,0.026 l 0.121,0.016 c 0.076,0.037 0.156,0.083 0.243,0.14 1.905,1.251 4.293,1.858 5.72,2.221 0.438,0.111 0.785,0.199 0.95,0.265 0.803,0.32 2.92,1.089 3.979,1.286 0.674,0.125 1.506,0.172 2.311,0.217 0.724,0.041 1.409,0.079 1.833,0.171 0.028,0.006 0.057,0.009 0.086,0.007 0.165,-0.008 0.321,-0.012 0.473,-0.016 0.327,0.151 0.656,0.302 0.986,0.453 0.956,0.435 1.906,0.855 2.847,1.262 0,-0.127 0,-0.254 0,-0.381 -1.265,-0.557 -2.53,-1.113 -3.794,-1.67 -0.17,0.005 -0.344,0.009 -0.528,0.017 -0.925,-0.2 -2.881,-0.154 -4.153,-0.39 -0.98,-0.182 -2.987,-0.897 -3.916,-1.268 -0.749,-0.299 -4.139,-0.831 -6.61,-2.455 -0.12,-0.079 -0.229,-0.138 -0.331,-0.185 -0.124,-0.017 -0.249,-0.033 -0.374,-0.05 -0.237,-0.031 -0.472,-0.06 -0.706,-0.087 -0.986,0.818 -1.971,1.636 -2.957,2.454 l -0.003,0.033 h 0.001 l -0.001,0.001 v -0.001 l -0.047,0.008 0.05,-0.041 0.09,-1.003 c 0.001,10e-4 0.003,0.002 0.004,0.002 0.04,0 0.076,-0.581 0.108,-1.743 1.047,0.11 2.095,0.221 3.142,0.331 -0.684,-0.152 -1.369,-0.304 -2.053,-0.456 -0.617,-0.001 -1.897,-0.053 -2.044,-0.566 -0.041,-0.143 0.02,-0.273 0.041,-0.321 0.402,-0.906 0.968,-2.509 1.249,-3.209 1.187,-2.962 1.357,-3.614 2.508,-5.647 0.262,-0.462 0.738,-0.462 1.268,-0.634 0.263,-0.085 0.527,-0.164 0.792,-0.24 l 0.128,-0.262 c -0.022,0.015 -0.045,0.028 -0.059,0.049 0,0 0.051,-0.105 0.061,-0.124 v 0 l 0.005,-0.011 v 0 l 0.061,-0.123 c 0.014,-0.021 0.037,-0.034 0.058,-0.049 l 0.084,-0.171 c -0.022,0.015 -0.045,0.028 -0.059,0.049 l 0.061,-0.124 v 0 l 0.066,-0.134 c 0.014,-0.021 0.037,-0.034 0.059,-0.049 l 0.085,-0.173 c -0.022,0.015 -0.045,0.028 -0.059,0.049 0,0 0.051,-0.104 0.061,-0.124 l 0.066,-0.134 c 0.014,-0.021 0.037,-0.034 0.059,-0.049 l 0.238,-0.485 c -0.022,0.015 -0.045,0.028 -0.059,0.049 L 31.238,8.94 31.251,8.913 C 31.265,8.892 31.288,8.879 31.31,8.864 l 0.033,-0.066 c 0.039,-0.079 0.127,-0.123 0.25,-0.133 0.304,-0.026 0.825,0.149 1.362,0.481 0.755,0.467 1.258,1.069 1.123,1.344 0,0 -0.119,0.244 -0.315,0.647 0.224,-0.035 0.483,-0.088 0.745,-0.141 l 0.02,-0.005 v 0.001 c 0.271,-0.054 0.539,-0.104 0.754,-0.122 0.159,-0.013 0.291,-0.01 0.374,0.022 0.03,0.011 0.073,0.014 0.126,0.009 0.333,-0.028 1.054,-0.326 1.235,-0.354 0.012,-0.002 0.023,-0.003 0.035,-0.004 0.195,-0.017 0.399,0.071 0.588,0.055 0.043,-0.004 0.086,-0.013 0.127,-0.03 0.104,-0.043 0.202,-0.067 0.295,-0.075 0.612,-0.052 0.99,0.605 1.212,1.365 0.478,0.212 2.504,2.787 3.972,4.059 0.174,0.089 0.339,0.186 0.478,0.304 0.415,0.356 0.822,0.724 1.222,1.099 0.166,0.147 0.332,0.294 0.5,0.437 0.034,0.023 0.084,0.058 0.118,0.081 0.813,0.558 1.627,1.108 2.442,1.649 C 48.004,19.313 48.002,19.138 48,18.963 Z"
   id="path174" />
</g>
</svg>
